# xmcd CD database file
#
# Track frame offsets:
#	150
#	108225
#	140917
#	173864
#	235439
#	253977
#	281831
#	314624
#
# Disc length: 4430 seconds
#
# Revision: 0
# Processed by: cddbd v1.4PL0 Copyright (c) Steve Scherf et al.
# Submitted via: CDex 1.50
#
DISCID=80114c08
DTITLE=The Monks Chants - Mantras Meditative Lamas CD-01
DYEAR=2003
DGENRE=New Age
TTITLE0=Om mani padme hum (Oh, Foya de loto, Amen)
TTITLE1=Ofering chant
TTITLE2=Tibetan overtone chant with nature
TTITLE3=A crown ornament for the wise
TTITLE4=Prayer to sangye menla
TTITLE5=Chenrezi pure land prayer
TTITLE6=The six sillabe mantra of the whitte lotus lord
TTITLE7=Until supreme ilumination
EXTD=YEAR: 2003
EXTT0=
EXTT1=
EXTT2=
EXTT3=
EXTT4=
EXTT5=
EXTT6=
EXTT7=
PLAYORDER=
